<?xml version="1.0" encoding="UTF-8"?>
<svg width="216px" height="55px" viewBox="0 0 216 55" version="1.1" xmlns="http://www.w3.org/2000/svg" xmlns:xlink="http://www.w3.org/1999/xlink">
    <!-- Generator: Sketch 60 (88103) - https://sketch.com -->
    <title>Group 18</title>
    <desc>Created with Sketch.</desc>
    <defs>
        <polygon id="path-1" points="0 62.414 214.573 62.414 214.573 -2.27373675e-13 0 -2.27373675e-13"></polygon>
    </defs>
    <g id="Page-1" stroke="none" stroke-width="1" fill="none" fill-rule="evenodd">
        <g id="Group-18" transform="translate(0.717000, 0.546000)">
            <polygon id="Fill-2" fill="#B3267C" points="26.6182 -0.0001 13.3092 7.6839 26.6182 15.3679 39.9272 7.6839"></polygon>
            <polygon id="Fill-3" fill="#131514" points="-0.0002 46.1042 13.3088 53.7882 13.3088 38.4212 -0.0002 30.7372"></polygon>
            <polygon id="Fill-4" fill="#B3267C" points="-0.0002 30.7367 13.3088 38.4207 26.6178 30.7367 13.3088 23.0527"></polygon>
            <polygon id="Fill-5" fill="#131514" points="13.3088 23.0523 13.3088 7.6843 26.6178 15.3683 26.6178 30.7363"></polygon>
            <polygon id="Fill-6" fill="#131514" points="58.3393 46.1045 53.6933 46.1045 53.6933 36.4455 44.4683 36.4455 44.4683 46.1045 39.8233 46.1045 39.8233 22.9765 44.4683 22.9765 44.4683 32.0335 53.6933 32.0335 53.6933 22.9765 58.3393 22.9765"></polygon>
            <path d="M69.8677,42.3613 C72.8087,42.3613 74.7137,40.1553 74.7137,37.1803 C74.7137,34.2063 72.7087,31.9673 69.8347,31.9673 C66.8927,31.9673 64.9877,34.1723 64.9877,37.1803 C64.9877,40.1883 66.9927,42.3613 69.8677,42.3613 M69.8347,27.9223 C75.4827,27.9223 79.1927,31.8663 79.1927,37.1473 C79.1927,42.3953 75.3487,46.4053 69.8347,46.4053 C64.2527,46.4053 60.5097,42.4953 60.5097,37.2143 C60.5097,31.9003 64.4537,27.9223 69.8347,27.9223" id="Fill-7" fill="#131514"></path>
            <mask id="mask-2" fill="white">
                <use xlink:href="#path-1"></use>
            </mask>
            <g id="Clip-10"></g>
            <path d="M81.129,46.105 L85.608,46.105 L85.608,28.224 L81.129,28.224 L81.129,46.105 Z M80.695,24.447 C80.695,22.943 81.898,21.739 83.368,21.739 C84.873,21.739 86.042,22.943 86.042,24.447 C86.042,25.917 84.873,27.087 83.368,27.087 C81.898,27.087 80.695,25.917 80.695,24.447 L80.695,24.447 Z" id="Fill-9" fill="#131514" mask="url(#mask-2)"></path>
            <path d="M93.6947,34.6405 C94.4977,34.8745 95.2327,35.0085 96.1347,35.2755 C99.0097,36.1445 100.4127,37.5485 100.4127,40.7905 C100.4127,44.4335 97.4057,46.3385 93.8957,46.3385 C88.9487,46.3385 87.4117,43.4305 87.5117,40.3225 L91.7897,40.3225 C91.7897,41.5925 92.2247,42.7285 93.9627,42.7285 C95.1327,42.7285 96.0677,42.1605 96.0677,41.1245 C96.0677,40.0885 95.5327,39.6205 94.2967,39.2865 C93.3267,39.0195 92.5587,38.8515 91.5897,38.4845 C89.1157,37.5815 87.8787,35.9105 87.8787,33.2035 C87.8787,30.1955 90.4197,27.9895 93.9957,27.9895 C97.7727,27.9895 100.0117,29.8945 100.0457,33.6375 L95.9347,33.6375 C95.9007,32.2675 95.2657,31.4655 93.8957,31.4655 C92.8257,31.4655 92.1247,32.0675 92.1247,32.9695 C92.1247,33.8385 92.6257,34.3395 93.6947,34.6405" id="Fill-11" fill="#131514" mask="url(#mask-2)"></path>
            <path d="M107.1963,28.2233 L109.9373,28.2233 L109.9373,32.0003 L107.1963,32.0003 L107.1963,40.3223 C107.1963,41.6593 107.6303,42.2273 108.9003,42.2273 L109.9373,42.2273 L109.9373,46.0383 C109.8373,46.0383 109.0343,46.2713 107.4973,46.2713 C104.1213,46.2713 102.7183,44.5673 102.7183,41.5923 L102.7183,32.0003 L101.0463,32.0003 L101.0463,28.2233 L102.7183,28.2233 L102.7183,25.4163 L107.1963,25.4163 L107.1963,28.2233 Z" id="Fill-12" fill="#131514" mask="url(#mask-2)"></path>
            <polygon id="Fill-13" fill="#B3267C" mask="url(#mask-2)" points="118.5256 36.4119 118.5256 46.1049 113.8796 46.1049 113.8796 22.9759 124.5746 22.9759 124.5746 27.3209 118.5256 27.3209 118.5256 32.1339 124.4076 32.1339 124.4076 36.4119"></polygon>
            <path d="M126.88,46.105 L131.358,46.105 L131.358,28.224 L126.88,28.224 L126.88,46.105 Z M126.445,24.447 C126.445,22.943 127.649,21.739 129.119,21.739 C130.623,21.739 131.793,22.943 131.793,24.447 C131.793,25.917 130.623,27.087 129.119,27.087 C127.649,27.087 126.445,25.917 126.445,24.447 L126.445,24.447 Z" id="Fill-14" fill="#B3267C" mask="url(#mask-2)"></path>
            <path d="M143.3226,34.8413 C143.3226,33.1033 142.5536,32.0003 140.9166,32.0003 C139.3126,32.0003 138.4436,33.1363 138.4436,34.8413 L138.4436,46.1043 L133.9646,46.1043 L133.9646,28.2233 L138.4436,28.2233 L138.4436,29.5603 C138.8776,29.0253 140.0136,28.0223 142.2196,28.0223 C146.3976,28.0223 147.8016,30.8633 147.8016,34.3063 L147.8016,46.1043 L143.3226,46.1043 L143.3226,34.8413 Z" id="Fill-15" fill="#B3267C" mask="url(#mask-2)"></path>
            <path d="M156.5564,42.796 C158.0274,42.796 159.1304,41.726 159.1304,40.222 C159.1304,38.718 158.0274,37.682 156.5234,37.682 C154.9854,37.682 153.9494,38.785 153.9494,40.222 C153.9494,41.726 155.0194,42.796 156.5564,42.796 M155.8884,34.373 C157.4924,34.373 158.5954,34.808 159.0634,35.109 L159.0634,34.206 C159.0634,32.669 158.3954,31.566 156.7234,31.566 C155.0524,31.566 154.5514,32.635 154.5514,33.638 L150.3734,33.638 C150.4744,30.262 152.5124,28.023 156.7234,28.023 C161.8704,28.023 163.4744,30.864 163.4744,34.841 L163.4744,46.105 L159.7314,46.105 L159.7314,44.968 C159.2304,45.503 158.0274,46.338 155.9544,46.338 C152.3784,46.338 149.7384,43.966 149.7384,40.256 C149.7384,36.913 152.1784,34.373 155.8884,34.373" id="Fill-16" fill="#B3267C" mask="url(#mask-2)"></path>
            <path d="M175.3717,34.8413 C175.3717,33.1033 174.6027,32.0003 172.9657,32.0003 C171.3617,32.0003 170.4927,33.1363 170.4927,34.8413 L170.4927,46.1043 L166.0137,46.1043 L166.0137,28.2233 L170.4927,28.2233 L170.4927,29.5603 C170.9267,29.0253 172.0627,28.0223 174.2687,28.0223 C178.4467,28.0223 179.8507,30.8633 179.8507,34.3063 L179.8507,46.1043 L175.3717,46.1043 L175.3717,34.8413 Z" id="Fill-17" fill="#B3267C" mask="url(#mask-2)"></path>
            <path d="M194.7552,40.8908 L197.2292,43.8988 C196.1592,45.0348 194.0532,46.4058 190.9782,46.4058 C185.3302,46.4058 181.7202,42.3948 181.7202,37.2138 C181.7202,31.9998 185.5982,27.9228 190.9452,27.9228 C194.1872,27.9228 196.1592,29.2258 197.2292,30.3288 L194.6552,33.4378 C193.9192,32.7358 192.7502,31.9668 190.9782,31.9668 C188.0372,31.9668 186.1992,34.2058 186.1992,37.1808 C186.1992,40.3898 188.4392,42.3608 191.0122,42.3608 C192.8172,42.3608 193.9532,41.5588 194.7552,40.8908" id="Fill-18" fill="#B3267C" mask="url(#mask-2)"></path>
            <path d="M201.8393,35.2425 L209.9273,35.2425 C209.7273,33.2375 208.2233,31.6995 205.7833,31.6995 C203.5103,31.6995 202.0733,33.2035 201.8393,35.2425 L201.8393,35.2425 Z M201.7383,38.6185 C201.9733,40.9915 203.6433,42.4285 206.1843,42.4285 C208.4573,42.4285 209.7603,41.2245 210.6963,39.7545 L214.0053,41.7595 C212.9353,43.9995 210.5293,46.4055 206.1843,46.4055 C200.7693,46.4055 197.0263,42.8965 197.0263,37.2145 C197.0263,31.8665 200.6353,27.9225 205.8163,27.9225 C211.1973,27.9225 214.5723,31.4325 214.5723,36.7795 C214.5723,37.2145 214.5723,37.8495 214.5063,38.6185 L201.7383,38.6185 Z" id="Fill-19" fill="#B3267C" mask="url(#mask-2)"></path>
        </g>
    </g>
</svg>